<svg xmlns="http://www.w3.org/2000/svg" viewBox="0 0 512 512">
  <defs>
    <linearGradient id="skyGradient" x1="0%" y1="0%" x2="0%" y2="100%">
      <stop offset="0%" style="stop-color:#4FACFE;stop-opacity:1" />
      <stop offset="100%" style="stop-color:#00F2FE;stop-opacity:1" />
    </linearGradient>
    <linearGradient id="landGradient" x1="0%" y1="0%" x2="0%" y2="100%">
      <stop offset="0%" style="stop-color:#43e97b;stop-opacity:1" />
      <stop offset="100%" style="stop-color:#38f9d7;stop-opacity:1" />
    </linearGradient>
  </defs>

  <circle cx="256" cy="256" r="240" fill="url(#skyGradient)"/>

  <circle cx="380" cy="130" r="40" fill="#FFD700" opacity="0.9"/>
  
  <path d="M140,160 Q160,130 190,160 T240,160 T290,140 T340,170" stroke="white" stroke-width="12" fill="none" opacity="0.4" stroke-linecap="round"/>
  <path d="M80,220 Q110,200 140,220 T200,210" stroke="white" stroke-width="10" fill="none" opacity="0.3" stroke-linecap="round"/>

  <path d="M16,256 Q128,350 256,280 Q384,210 496,256 L496,400 A240,240 0 0,1 16,400 Z" fill="url(#landGradient)"/>
  
  <path d="M100,320 C100,150 350,100 400,280" stroke="white" stroke-width="10" fill="none" stroke-dasharray="20,15" stroke-linecap="round"/>

  <path d="M80,330 L120,310 L125,295 L135,298 L130,310 L150,315 L145,325 L125,320 L115,340 L100,335 Z" fill="white"/>

  <g transform="translate(385, 265)">
    <path d="M0,0 C-15,-25 -15,-40 0,-55 C15,-40 15,-25 0,0 Z" fill="#FF5F6D"/>
    <circle cx="0" cy="-35" r="8" fill="white"/>
  </g>

</svg>